<?xml version="1.0" encoding="iso-8859-1"?>
<!-- Generator: Adobe Illustrator 19.0.0, SVG Export Plug-In . SVG Version: 6.00 Build 0)  -->
<svg version="1.1" id="Capa_1" xmlns="http://www.w3.org/2000/svg" xmlns:xlink="http://www.w3.org/1999/xlink" x="0px" y="0px"
	 viewBox="0 0 496 496" style="enable-background:new 0 0 496 496;" xml:space="preserve">
<g>
	<g>
		<g>
			<polygon points="202.344,122.344 164.688,160 104,160 104,176 171.312,176 213.656,133.656 			"/>
			<path d="M208,272c17.648,0,32-14.352,32-32v-32c0-17.648-14.352-32-32-32s-32,14.352-32,32v32C176,257.648,190.352,272,208,272z
				 M192,208c0-8.824,7.176-16,16-16c8.824,0,16,7.176,16,16v32c0,8.824-7.176,16-16,16c-8.824,0-16-7.176-16-16V208z"/>
			<path d="M416,272c17.648,0,32-14.352,32-32v-32c0-17.648-14.352-32-32-32s-32,14.352-32,32v32C384,257.648,398.352,272,416,272z
				 M400,208c0-8.824,7.176-16,16-16c8.824,0,16,7.176,16,16v32c0,8.824-7.176,16-16,16c-8.824,0-16-7.176-16-16V208z"/>
			<path d="M496,400V232c0-13.232-10.768-24-24-24h-8v16h8c4.416,0,8,3.584,8,8v56H144v-56c0-4.416,3.584-8,8-8h8v-16h-8
				c-13.232,0-24,10.768-24,24v240c0,13.232,10.768,24,24,24h283.312L496,435.312V416h-72v64H152c-4.416,0-8-3.584-8-8V304h336v96
				H496z M440,432h36.688L440,468.688V432z"/>
			<rect x="256" y="208" width="112" height="16"/>
			<path d="M408,464V320H216v144H408z M232,336h160v112H232V336z"/>
			<path d="M48.268,176H72v-16H48.273c1.792-27.081,12.603-51.733,29.455-70.973l16.743,16.743l11.314-11.314L89.043,77.715
				C108.28,60.87,132.927,50.064,160,48.273V72h16V48.273c27.075,1.791,51.722,12.598,70.96,29.444l-16.735,16.735l11.314,11.314
				l16.736-16.736c16.851,19.239,27.661,43.891,29.453,70.97H264v16h23.73c-0.323,4.879-0.934,9.738-1.834,14.52l15.72,2.968
				C303.192,185.128,304,176.544,304,168c0-74.992-61.008-136-136-136S32,93.008,32,168c0,52.456,29.304,99.32,76.48,122.312
				l7.016-14.376C76.272,256.818,51.062,219.006,48.268,176z"/>
			<path d="M16,168C16,84.184,84.184,16,168,16s152,68.184,152,152c0,7.648-0.568,15.32-1.704,22.8l15.832,2.392
				C335.368,184.92,336,176.448,336,168C336,75.368,260.632,0,168,0S0,75.368,0,168c0,69.76,43.888,133.024,109.216,157.424
				l5.6-14.984C55.712,288.36,16,231.12,16,168z"/>
		</g>
	</g>
</g>
<g>
</g>
<g>
</g>
<g>
</g>
<g>
</g>
<g>
</g>
<g>
</g>
<g>
</g>
<g>
</g>
<g>
</g>
<g>
</g>
<g>
</g>
<g>
</g>
<g>
</g>
<g>
</g>
<g>
</g>
</svg>
