<?xml version="1.0" encoding="iso-8859-1"?>
<!-- Generator: Adobe Illustrator 19.0.0, SVG Export Plug-In . SVG Version: 6.00 Build 0)  -->
<svg version="1.1" id="Layer_1" xmlns="http://www.w3.org/2000/svg" xmlns:xlink="http://www.w3.org/1999/xlink" x="0px" y="0px"
	 viewBox="0 0 496 496" style="enable-background:new 0 0 496 496;" xml:space="preserve">
<g>
	<g>
		<g>
			<path d="M480,400V152c0-13.232-10.768-24-24-24h-40.952C407.056,56.104,345.976,0,271.992,0h-48
				C150.008,0,88.928,56.104,80.936,128H40c-13.232,0-24,10.768-24,24v248H0v56c0,22.056,17.944,40,40,40h416
				c22.056,0,40-17.944,40-40v-56H480z M415.992,144H456c4.416,0,8,3.592,8,8v248h-16V160h-32.008V144z M223.992,16h48
				c4.96,0,9.832,0.352,14.648,0.904l-1.992,13.968l15.84,2.264L302.4,19.8c55.92,13.704,97.592,64.112,97.592,124.2v61.8
				c0,22.432-13.32,42.64-33.936,51.48l-8.304,3.552c-8.248,3.528-13.8,11.28-14.48,20.216l-3.848,50.016
				C337.832,351.776,320.312,368,299.536,368H196.44c-20.768,0-38.28-16.224-39.88-36.936l-3.84-50.024
				c-0.696-8.944-6.24-16.688-14.48-20.208l-8.304-3.56C109.32,248.432,96,228.232,96,205.792V144h-0.008
				C95.992,73.424,153.416,16,223.992,16z M123.632,271.976l8.304,3.56c2.744,1.168,4.584,3.752,4.824,6.736l3.84,50.024
				C142.832,361.288,167.368,384,196.44,384h103.104c29.08,0,53.608-22.712,55.832-51.704l3.848-50.024
				c0.224-2.976,2.072-5.552,4.824-6.736l8.304-3.56c26.512-11.36,43.64-37.336,43.64-66.176V176H432v224H64V176h15.992v29.8
				C79.992,234.64,97.12,260.624,123.632,271.976z M280,416v8c0,4.408-3.584,8-8,8h-48c-4.416,0-8-3.592-8-8v-8H280z M32,152
				c0-4.408,3.584-8,8-8h39.992v16H48v240H32V152z M480,456c0,13.232-10.768,24-24,24H40c-13.232,0-24-10.768-24-24v-40h32h152v8
				c0,13.232,10.768,24,24,24h48c13.232,0,24-10.768,24-24v-8h152h32V456z"/>
			<path d="M167.992,208c17.648,0,32-14.352,32-32s-14.352-32-32-32s-32,14.352-32,32S150.344,208,167.992,208z M167.992,160
				c8.824,0,16,7.176,16,16c0,8.824-7.176,16-16,16c-8.824,0-16-7.176-16-16C151.992,167.176,159.168,160,167.992,160z"/>
			<path d="M295.992,176c0,17.648,14.352,32,32,32s32-14.352,32-32s-14.352-32-32-32S295.992,158.352,295.992,176z M343.992,176
				c0,8.824-7.176,16-16,16c-8.824,0-16-7.176-16-16c0-8.824,7.176-16,16-16C336.816,160,343.992,167.176,343.992,176z"/>
			<path d="M295.992,272h-96c-13.232,0-24,10.768-24,24v32c0,13.232,10.768,24,24,24h96c13.232,0,24-10.768,24-24v-32
				C319.992,282.768,309.224,272,295.992,272z M303.992,328c0,4.408-3.584,8-8,8h-8v-16h-16v16h-16v-16h-16v16h-16v-16h-16v16h-8
				c-4.416,0-8-3.592-8-8v-32c0-4.408,3.584-8,8-8h8v16h16v-16h16v16h16v-16h16v16h16v-16h8c4.416,0,8,3.592,8,8V328z"/>
			<path d="M259.048,256c11.544,0,20.944-9.392,20.944-20.944c0-3.232-0.768-6.472-2.208-9.368l-11.056-22.112
				C263.152,196.44,255.976,192,247.992,192s-15.16,4.44-18.736,11.576L218.2,225.688c-1.448,2.896-2.208,6.136-2.208,9.368
				c0,11.552,9.4,20.944,20.944,20.944H259.048z M231.992,235.056c0-0.76,0.176-1.528,0.52-2.208l11.056-22.104
				c0.848-1.696,2.544-2.744,4.424-2.744s3.576,1.048,4.424,2.736l11.056,22.112c0.344,0.68,0.52,1.448,0.52,2.208
				c0,2.728-2.216,4.944-4.944,4.944h-22.112C234.208,240,231.992,237.784,231.992,235.056z"/>
			<polygon points="229.24,79.408 285.784,72.336 312,92 312,112 328,112 328,84 296.592,60.44 298.208,49.128 282.368,46.864 
				280.944,56.824 218.76,64.592 200.84,100.424 215.16,107.576 			"/>
			<rect x="448" y="440" width="16" height="16"/>
			<rect x="416" y="440" width="16" height="16"/>
			<rect x="80" y="368" width="16" height="16"/>
			<rect x="80" y="272" width="16" height="80"/>
		</g>
	</g>
</g>
<g>
</g>
<g>
</g>
<g>
</g>
<g>
</g>
<g>
</g>
<g>
</g>
<g>
</g>
<g>
</g>
<g>
</g>
<g>
</g>
<g>
</g>
<g>
</g>
<g>
</g>
<g>
</g>
<g>
</g>
</svg>
