<?xml version="1.0" encoding="iso-8859-1"?>
<!-- Generator: Adobe Illustrator 19.0.0, SVG Export Plug-In . SVG Version: 6.00 Build 0)  -->
<svg version="1.1" id="Capa_1" xmlns="http://www.w3.org/2000/svg" xmlns:xlink="http://www.w3.org/1999/xlink" x="0px" y="0px"
	 viewBox="0 0 496 496" style="enable-background:new 0 0 496 496;" xml:space="preserve">
<g>
	<g>
		<g>
			<path d="M272,120c0-30.872-25.128-56-56-56h-35.056l-32-64h-30.008l8,64H60.528l-24-40H0v40v8c0,30.872,25.128,56,56,56h70.776
				l-8,56h29.864l32-56H272V120z M139.056,16l24,48h-19.992l-6-48H139.056z M16,64V40h11.472l14.4,24H16z M139.36,168h-2.136
				l5.712-40h19.272L139.36,168z M208,112H56c-19.32,0-35.48-13.768-39.192-32H208V112z M224,112V80.88
				c15.64,3.192,28.008,15.48,31.192,31.12H224z"/>
			<path d="M425.024,304h-2.048C383.84,304,352,335.84,352,374.976c0,12.552,3.344,24.92,9.664,35.76l43.4,74.384
				C408.976,491.832,416.232,496,424,496s15.024-4.168,18.944-10.88l43.384-74.384c6.328-10.832,9.672-23.2,9.672-35.76
				C496,335.84,464.16,304,425.024,304z M472.504,402.672l-43.384,74.384c-2.128,3.624-8.136,3.624-10.24,0l-43.4-74.384
				c-4.896-8.392-7.48-17.968-7.48-27.696C368,344.664,392.664,320,422.976,320h2.048C455.336,320,480,344.664,480,374.976
				C480,384.704,477.416,394.28,472.504,402.672z"/>
			<path d="M424,336c-22.056,0-40,17.944-40,40c0,22.056,17.944,40,40,40c22.056,0,40-17.944,40-40C464,353.944,446.056,336,424,336
				z M424,400c-13.232,0-24-10.768-24-24s10.768-24,24-24s24,10.768,24,24S437.232,400,424,400z"/>
			<path d="M18.576,328.832l-15.264,4.816c1.808,5.712,4.328,11.192,7.504,16.32l13.592-8.424
				C21.936,337.544,19.976,333.272,18.576,328.832z"/>
			<path d="M29.016,276.112l-12.28-10.248c-3.864,4.624-7.136,9.712-9.72,15.112l14.44,6.904
				C23.464,283.672,26.008,279.72,29.016,276.112z"/>
			<path d="M16,312.016c0.008-3.68,0.368-7.344,1.064-10.896L1.36,298.04C0.472,302.584,0.008,307.28,0,312
				c0,1.32,0.032,2.64,0.104,3.944l15.984-0.856C16.032,314.064,16,313.04,16,312.016z"/>
			<path d="M22.152,363.944c4.32,4.152,9.168,7.76,14.392,10.728l7.904-13.904c-4.08-2.32-7.848-5.136-11.216-8.368L22.152,363.944z
				"/>
			<path d="M29.88,253.592l9.376,12.968c3.792-2.744,7.912-5,12.248-6.704l-5.84-14.888C40.072,247.168,34.76,250.064,29.88,253.592
				z"/>
			<path d="M442.088,114.296c-5.792-1.504-11.792-2.28-17.84-2.296l-0.048,16c4.712,0.016,9.376,0.608,13.856,1.784L442.088,114.296
				z"/>
			<path d="M473.304,131.528c-4.392-4.136-9.28-7.688-14.52-10.584l-7.736,14c4.08,2.256,7.88,5.032,11.304,8.24L473.304,131.528z"
				/>
			<path d="M477.248,166.6l15.2-4.968c-1.864-5.712-4.456-11.176-7.68-16.256l-13.504,8.592
				C473.792,157.912,475.8,162.168,477.248,166.6z"/>
			<path d="M467.36,219.448l12.392,10.128c3.824-4.672,7.04-9.8,9.56-15.216L474.8,207.6
				C472.84,211.824,470.336,215.808,467.36,219.448z"/>
			<rect x="296" y="112" width="16" height="16"/>
			<path d="M480,184c0,3.48-0.32,6.936-0.944,10.288l15.736,2.936c0.8-4.32,1.208-8.768,1.208-13.224
				c0-1.576-0.056-3.144-0.152-4.696l-15.968,0.984C479.96,181.512,480,182.752,480,184z"/>
			<path d="M466.72,241.952l-9.488-12.872c-3.784,2.784-7.88,5.08-12.2,6.832l6.016,14.832
				C456.592,248.488,461.864,245.528,466.72,241.952z"/>
			<rect x="352.48" y="240" width="16" height="16"/>
			<rect x="360.16" y="112" width="16" height="16"/>
			<rect x="392.16" y="112" width="16" height="16"/>
			<path d="M433.648,255.36l-2.112-15.856C429.048,239.832,426.512,240,424,240h-7.4v16h7.4
				C427.216,256,430.464,255.784,433.648,255.36z"/>
			<rect x="384.56" y="240" width="16" height="16"/>
			<path d="M53.176,381.504c5.776,1.568,11.768,2.4,17.808,2.48l0.2-16c-4.696-0.064-9.352-0.704-13.832-1.912L53.176,381.504z"/>
			<rect x="247.368" y="368" width="16" height="16"/>
			<path d="M63.104,240.544l1.968,15.872C67.336,256.144,69.648,256,72,256h8.088v-16H72C69.024,240,66.032,240.176,63.104,240.544z
				"/>
			<rect x="224.32" y="240" width="16" height="16"/>
			<rect x="279.416" y="368" width="16" height="16"/>
			<rect x="288.4" y="240" width="16" height="16"/>
			<rect x="320.48" y="240" width="16" height="16"/>
			<rect x="328.08" y="112" width="16" height="16"/>
			<rect x="311.472" y="368" width="16" height="16"/>
			<rect x="215.32" y="368" width="16" height="16"/>
			<rect x="256.32" y="240" width="16" height="16"/>
			<rect x="128.16" y="240" width="16" height="16"/>
			<rect x="96.08" y="240" width="16" height="16"/>
			<rect x="192.24" y="240" width="16" height="16"/>
			<rect x="87.128" y="368" width="16" height="16"/>
			<rect x="119.168" y="368" width="16" height="16"/>
			<rect x="151.216" y="368" width="16" height="16"/>
			<rect x="183.264" y="368" width="16" height="16"/>
			<rect x="160.24" y="240" width="16" height="16"/>
		</g>
	</g>
</g>
<g>
</g>
<g>
</g>
<g>
</g>
<g>
</g>
<g>
</g>
<g>
</g>
<g>
</g>
<g>
</g>
<g>
</g>
<g>
</g>
<g>
</g>
<g>
</g>
<g>
</g>
<g>
</g>
<g>
</g>
</svg>
