<?xml version="1.0" encoding="iso-8859-1"?>
<!-- Generator: Adobe Illustrator 19.0.0, SVG Export Plug-In . SVG Version: 6.00 Build 0)  -->
<svg version="1.1" id="Capa_1" xmlns="http://www.w3.org/2000/svg" xmlns:xlink="http://www.w3.org/1999/xlink" x="0px" y="0px"
	 viewBox="0 0 496 496" style="enable-background:new 0 0 496 496;" xml:space="preserve">
<g>
	<g>
		<path d="M321.368,282.216l-38.08,26.664c-20.784,14.544-49.784,14.544-70.56,0l-38.072-26.656l-9.168,13.112l38.072,26.656
			C216.64,331.16,232.008,336,248,336s31.36-4.84,44.456-14.008l38.08-26.664L321.368,282.216z"/>
	</g>
</g>
<g>
	<g>
		<polygon points="200,208 200,200 184,200 184,208 176,208 176,224 184,224 184,232 200,232 200,224 208,224 208,208 		"/>
	</g>
</g>
<g>
	<g>
		<polygon points="312,208 312,200 296,200 296,208 288,208 288,224 296,224 296,232 312,232 312,224 320,224 320,208 		"/>
	</g>
</g>
<g>
	<g>
		<path d="M393.496,380c11.024-19.104,4.464-43.616-14.632-54.64l-3.064-1.768c-3.224-1.856-6.68-3.256-10.272-4.16l-10.944-2.728
			c2.896-2.848,5.36-6.056,7.368-9.536c19.16-3.048,35.688-14.352,45.408-31.176c8-13.864,10.512-30.096,7.088-45.712l-0.624-1.864
			C425.104,216.712,432,200.92,432,184c0-16.864-6.864-32.616-18.088-44.304l0.528-1.976c3.432-15.616,0.912-31.848-7.088-45.712
			c-8.2-14.2-21.36-24.608-37.056-29.304l-0.792-0.152c-4.448-15.656-14.72-29.36-29.504-37.896
			c-13.864-8-30.104-10.504-45.984-7.016l-1.72,0.44C280.544,6.784,264.76,0,248,0c-16.768,0-32.464,6.432-44.456,18.056
			c-15.792-3.928-32.896-1.864-47.544,6.592c-14.744,8.52-25.008,22.168-29.472,37.776l-0.824,0.272
			C110.008,67.392,96.856,77.8,88.648,92.008c-8,13.864-10.512,30.096-7.016,46l0.44,1.704C70.856,151.4,64,167.144,64,184
			c0,16.808,6.824,32.504,17.984,44.184l-0.416,2.104c-3.432,15.616-0.912,31.848,7.088,45.712
			c9.72,16.824,26.24,28.12,45.408,31.176c2.008,3.48,4.472,6.68,7.36,9.528l-10.944,2.736c-3.592,0.904-7.048,2.304-10.288,4.168
			l-3.04,1.76c-19.104,11.024-25.664,35.536-14.64,54.64c0.264,0.456,0.632,0.824,0.912,1.272l-36.432,36.44l5.656,5.656
			C119.48,470.2,181.76,496,248,496s128.52-25.8,175.36-72.64l5.656-5.656l-36.432-36.44
			C392.864,380.824,393.232,380.456,393.496,380z M361.648,334.984c2.144,0.52,4.216,1.352,6.152,2.472l3.056,1.768
			c11.464,6.616,15.4,21.32,8.784,32.784c-3.2,5.552-8.384,9.52-14.568,11.184c-6.192,1.648-12.664,0.808-18.208-2.4l-3.056-1.76
			c-1.92-1.104-3.688-2.48-5.24-4.088l-9.824-10.152L317.24,375.92l9.832,10.16c0.024,0.032,0.064,0.048,0.088,0.08
			c1.384,1.336,2.768,3.736,3.872,5.664l1.76,3.048c6.616,11.464,2.68,26.168-8.784,32.784c-11.464,6.632-26.168,2.68-32.784-8.776
			l-1.768-3.064c-1.112-1.912-1.952-3.992-2.496-6.16l-11.32-45.224c7.688-2,15.136-4.824,22.24-8.464l9.504,9.768l11.504-11.128
			l-6.96-7.16l25.896-18.128L361.648,334.984z M248,352c-19.288,0-37.832-5.84-53.632-16.904l-38.072-26.656
			C148.592,303.056,144,294.224,144,284.832c0-7.744,3.248-14.976,8.672-20.344c8.008,2.176,31.808,8.352,57.6,12.248
			C215.624,292.528,230.424,304,248,304c17.64,0,32.48-11.552,37.784-27.432l3.488-0.376c24.4-3.904,46.4-9.616,54.064-11.704
			c5.416,5.368,8.664,12.6,8.664,20.344c0,9.4-4.592,18.224-12.296,23.616l-38.072,26.656C285.832,346.16,267.288,352,248,352z
			 M272,420.48V424c0,13.232-10.768,24-24,24s-24-10.768-24-24v-3.52c0-2.232,0.312-4.448,0.928-6.592l13.248-46.368
			c3.256,0.288,6.528,0.48,9.824,0.48s6.568-0.192,9.824-0.48l13.256,46.376C271.688,416.032,272,418.248,272,420.48z
			 M168.544,386.416c0.128-0.128,0.272-0.232,0.4-0.36l28.92-29.896l0.216-0.24c7.112,3.656,14.576,6.48,22.28,8.488l-11.32,45.216
			c-0.544,2.176-1.392,4.256-2.504,6.184l-1.76,3.04c-3.2,5.552-8.376,9.52-14.568,11.176c-6.192,1.664-12.664,0.808-18.208-2.4
			c-11.464-6.608-15.4-21.312-8.784-32.776l2.064-3.576c1.184-2.056,2.12-3.68,3.296-4.824L168.544,386.416z M248,224
			c-20.768,0-37.688,15.968-39.616,36.232c-20.336-3.304-39.224-7.96-48.384-10.36v-72.368c7.072,4.104,15.256,6.496,24,6.496
			c14.072,0,27.288-6.288,36.312-16.872c16.096,11.536,39.28,11.536,55.376,0C284.712,177.712,297.928,184,312,184
			c8.744,0,16.928-2.392,24-6.496v72.376c-9.184,2.416-28.144,7.104-48.376,10.376C285.704,239.976,268.776,224,248,224z M272,264
			c0,13.232-10.768,24-24,24s-24-10.768-24-24s10.768-24,24-24S272,250.768,272,264z M128,284.832c0,1.488,0.12,2.968,0.272,4.432
			c-10.792-3.752-19.928-11.16-25.76-21.256c-5.008-8.688-6.968-18.6-6.024-28.544c4.16,2.384,8.52,4.48,13.24,5.888l4.56-15.336
			C94.096,224.008,80,205.088,80,184s14.096-40.008,34.28-46.008l-4.56-15.336c-4.72,1.408-9.08,3.504-13.248,5.888
			c-0.944-9.888,1.008-19.832,6.032-28.544c4.992-8.648,12.52-15.28,21.544-19.44c0.024,2.84,0.168,5.696,0.576,8.568l15.84-2.256
			c-2.784-19.52,6.456-38.504,23.528-48.36c17.4-10.056,39.456-8.136,54.856,4.784l10.28-12.256c-2.8-2.352-5.792-4.368-8.888-6.168
			C228.312,19.128,237.888,16,248,16c18.448,0,35.472,10.768,43.384,27.432l14.456-6.856c-0.68-1.432-1.544-2.736-2.32-4.096
			c9.872-0.936,19.8,1.024,28.488,6.04c17.08,9.856,26.312,28.84,23.528,48.36l15.84,2.256c0.408-2.872,0.544-5.728,0.576-8.56
			c8.968,4.12,16.528,10.752,21.544,19.432c5.064,8.784,7.016,18.816,6.056,28.56c-4.168-2.392-8.536-4.496-13.272-5.904L381.72,138
			c20.184,5.992,34.28,24.912,34.28,46s-14.096,40.008-34.28,46.008l4.56,15.336c4.72-1.4,9.08-3.504,13.24-5.888
			c0.944,9.88-1.008,19.832-6.032,28.536c-5.832,10.104-14.976,17.512-25.76,21.264c0.152-1.464,0.272-2.936,0.272-4.424
			c0-13.288-5.912-25.816-16-34.296V162.48c5.048-7.6,8-16.696,8-26.48h-16c0,17.648-14.352,32-32,32
			c-11.504,0-22.176-6.368-27.856-16.632l-5.328-9.624l-7.512,8.032C265.144,156.368,256.856,160,248,160
			c-8.856,0-17.144-3.632-23.296-10.216l-7.512-8.032l-5.328,9.624C206.176,161.632,195.504,168,184,168c-17.648,0-32-14.352-32-32
			h-16c0,9.784,2.952,18.88,8,26.48v88.056C133.912,259.008,128,271.536,128,284.832z M125.16,339.216l3.032-1.752
			c1.944-1.12,4.024-1.96,6.176-2.496l23.512-5.88l26.12,18.28l-26.552,27.56c-1.56,1.616-3.328,2.992-5.256,4.096l-3.048,1.76
			c-5.544,3.2-12.016,4.048-18.208,2.4c-6.184-1.664-11.368-5.632-14.568-11.184C109.752,360.536,113.688,345.832,125.16,339.216z
			 M406.296,417.616C363.192,457.904,307.296,480,248,480s-115.192-22.096-158.296-62.384l24.792-24.8
			c3.72,2.56,7.808,4.616,12.296,5.824c3.448,0.928,6.944,1.376,10.416,1.376c2.6,0,5.168-0.336,7.712-0.848
			c-3.184,16.312,3.896,33.56,19.072,42.32c6.168,3.56,13.008,5.376,19.936,5.376c3.472,0,6.968-0.456,10.416-1.376
			c6.032-1.616,11.376-4.68,15.936-8.696C215.664,452.56,230.448,464,248,464s32.336-11.44,37.712-27.208
			c4.56,4.008,9.904,7.072,15.936,8.696c3.448,0.92,6.944,1.376,10.416,1.376c6.928,0,13.776-1.816,19.936-5.376
			c9.248-5.344,15.864-13.968,18.632-24.288c1.608-5.992,1.64-12.112,0.472-18.024c2.536,0.504,5.096,0.84,7.688,0.84
			c3.472,0,6.968-0.456,10.416-1.376c4.496-1.2,8.576-3.256,12.296-5.824L406.296,417.616z"/>
	</g>
</g>
<g>
</g>
<g>
</g>
<g>
</g>
<g>
</g>
<g>
</g>
<g>
</g>
<g>
</g>
<g>
</g>
<g>
</g>
<g>
</g>
<g>
</g>
<g>
</g>
<g>
</g>
<g>
</g>
<g>
</g>
</svg>
