<?xml version="1.0" encoding="iso-8859-1"?>
<!-- Generator: Adobe Illustrator 19.0.0, SVG Export Plug-In . SVG Version: 6.00 Build 0)  -->
<svg version="1.1" id="Capa_1" xmlns="http://www.w3.org/2000/svg" xmlns:xlink="http://www.w3.org/1999/xlink" x="0px" y="0px"
	 viewBox="0 0 496 496" style="enable-background:new 0 0 496 496;" xml:space="preserve">
<g>
	<g>
		<path d="M496,392V104c0-13.232-10.768-24-24-24h-33.584c-1.816-13.904-8.056-26.768-18.136-36.848l-11.312,11.312
			c9.072,9.072,14.064,21.128,14.064,33.944c0,12.816-4.992,24.872-14.064,33.944l11.312,11.312
			c1.792-1.792,3.424-3.696,4.976-5.656H448v208H48V128h27.392c5.32,12.112,16.464,21.024,29.872,23.32
			C108.376,160.96,117.336,168,128,168h24h8c5.352,0,10.68,0.208,16,0.424V256c0,22.056,17.944,40,40,40c22.056,0,40-17.944,40-40
			v-76.168c23.456,5.84,46.448,13.712,68.8,23.872l3.888,1.768C331.176,216.064,340.656,224,352,224c13.232,0,24-10.768,24-24V24
			c0-13.232-10.768-24-24-24c-11.352,0-20.832,7.936-23.312,18.536l-3.888,1.768C272.68,43.992,217.232,56,160,56h-8h-24
			c-10.664,0-19.624,7.04-22.736,16.68C98.84,73.784,93,76.424,88,80.2V80H24C10.768,80,0,90.768,0,104v288
			c0,13.232,10.768,24,24,24h119.312L0,474.632V496h49.296l144-48h109.4l144,48H496v-21.368L352.688,416H472
			C485.232,416,496,405.232,496,392z M240,256c0,13.232-10.768,24-24,24s-24-10.768-24-24h32v-72h-32v-14.592
			c16.184,1.288,32.2,3.504,48,6.744V256z M192,240v-40h16v40H192z M168,71.928c55.464-1.048,109.216-13.064,160-35.608v20.056h16
			V24c0-4.408,3.584-8,8-8c4.416,0,8,3.592,8,8v176c0,4.408-3.584,8-8,8c-4.416,0-8-3.592-8-8V72.328h-16V187.68
			c-50.784-22.544-104.536-34.56-160-35.608V71.928z M120,80c0-4.408,3.584-8,8-8h24v16h-16v16h16v16h-16v16h16v16h-24
			c-4.416,0-8-3.592-8-8V80z M104,89.472v45.048c-9.288-3.312-16-12.112-16-22.528S94.712,92.784,104,89.472z M184,434.232
			L46.704,480H29.128L184,416.648V434.232z M296,432h-96v-16h96V432z M466.872,480h-17.576L312,434.232v-17.584L466.872,480z
			 M24,400c-4.416,0-8-3.592-8-8V104c0-4.408,3.584-8,8-8h51.392C73.232,100.912,72,106.304,72,112H32v240h432V112h-29.488
			c2.024-5.104,3.376-10.472,4.024-16H472c4.416,0,8,3.592,8,8v288c0,4.408-3.584,8-8,8H24z"/>
	</g>
</g>
<g>
	<g>
		<rect x="336" y="272" width="96" height="16"/>
	</g>
</g>
<g>
	<g>
		<rect x="336" y="240" width="96" height="16"/>
	</g>
</g>
<g>
	<g>
		<path d="M397.656,65.768L386.344,77.08c3.024,3.024,4.688,7.04,4.688,11.32c0,4.28-1.664,8.296-4.688,11.32l11.312,11.312
			c6.048-6.04,9.376-14.08,9.376-22.632S403.704,71.816,397.656,65.768z"/>
	</g>
</g>
<g>
	<g>
		<path d="M208,88v48h80V88H208z M240,120h-16v-16h16V120z M272,120h-16v-16h16V120z"/>
	</g>
</g>
<g>
	<g>
		<rect x="416" y="304" width="16" height="16"/>
	</g>
</g>
<g>
	<g>
		<rect x="336" y="304" width="16" height="16"/>
	</g>
</g>
<g>
	<g>
		<rect x="376" y="304" width="16" height="16"/>
	</g>
</g>
<g>
	<g>
		<rect x="280" y="368" width="16" height="16"/>
	</g>
</g>
<g>
	<g>
		<rect x="200" y="368" width="16" height="16"/>
	</g>
</g>
<g>
	<g>
		<rect x="240" y="368" width="16" height="16"/>
	</g>
</g>
<g>
</g>
<g>
</g>
<g>
</g>
<g>
</g>
<g>
</g>
<g>
</g>
<g>
</g>
<g>
</g>
<g>
</g>
<g>
</g>
<g>
</g>
<g>
</g>
<g>
</g>
<g>
</g>
<g>
</g>
</svg>
