<?xml version="1.0" encoding="iso-8859-1"?>
<!-- Generator: Adobe Illustrator 19.0.0, SVG Export Plug-In . SVG Version: 6.00 Build 0)  -->
<svg version="1.1" id="Layer_1" xmlns="http://www.w3.org/2000/svg" xmlns:xlink="http://www.w3.org/1999/xlink" x="0px" y="0px"
	 viewBox="0 0 497.208 497.208" style="enable-background:new 0 0 497.208 497.208;" xml:space="preserve">
<g>
	<g>
		<g>
			<path d="M0.604,0v400h144v-16h-128V80h464v304h-128v16h144V0H0.604z M480.604,64h-464V16h464V64z"/>
			<rect x="96.604" y="32" width="16" height="16"/>
			<rect x="32.604" y="32" width="48" height="16"/>
			<path d="M368.604,288c52.936,0,96-43.064,96-96c0-52.936-43.064-96-96-96h-1.072c-26.992,0-52.88,11.456-71.032,31.424
				l-47.896,52.68l-47.896-52.688C182.556,107.456,156.66,96,129.676,96h-1.072c-52.936,0-96,43.064-96,96c0,52.936,43.064,96,96,96
				h1.072c26.992,0,52.88-11.456,71.032-31.424l47.896-52.68l47.896,52.688C314.652,276.544,340.548,288,367.532,288H368.604z
				 M188.876,245.816C173.74,262.456,152.164,272,129.676,272h-1.072c-44.112,0-80-35.888-80-80s35.888-80,80-80h1.072
				c22.488,0,44.064,9.544,59.2,26.184L237.788,192L188.876,245.816z M308.332,245.816L259.42,192l48.92-53.816
				C323.476,121.536,345.052,112,367.54,112h1.064c44.112,0,80,35.888,80,80s-35.888,80-80,80h-1.072
				C345.044,272,323.468,262.456,308.332,245.816z"/>
			<polygon points="336.604,304 320.604,304 320.604,432 330.476,432 248.604,478.792 166.732,432 176.604,432 176.604,320 
				160.604,320 160.604,416 106.476,416 248.604,497.208 390.732,416 336.604,416 			"/>
			<rect x="192.604" y="304" width="16" height="128"/>
			<rect x="192.604" y="272" width="16" height="16"/>
			<rect x="224.604" y="288" width="16" height="160"/>
			<rect x="224.604" y="256" width="16" height="16"/>
			<rect x="256.604" y="272" width="16" height="16"/>
			<rect x="256.604" y="240" width="16" height="16"/>
			<rect x="288.604" y="320" width="16" height="112"/>
			<rect x="288.604" y="288" width="16" height="16"/>
			<rect x="256.604" y="304" width="16" height="144"/>
			<rect x="288.604" y="184" width="16" height="16"/>
			<rect x="304.604" y="168" width="16" height="16"/>
			<rect x="304.604" y="200" width="16" height="16"/>
			<rect x="192.604" y="184" width="16" height="16"/>
			<rect x="176.604" y="168" width="16" height="16"/>
			<rect x="176.604" y="200" width="16" height="16"/>
		</g>
	</g>
</g>
<g>
</g>
<g>
</g>
<g>
</g>
<g>
</g>
<g>
</g>
<g>
</g>
<g>
</g>
<g>
</g>
<g>
</g>
<g>
</g>
<g>
</g>
<g>
</g>
<g>
</g>
<g>
</g>
<g>
</g>
</svg>
