<?xml version="1.0" encoding="iso-8859-1"?>
<!-- Generator: Adobe Illustrator 19.0.0, SVG Export Plug-In . SVG Version: 6.00 Build 0)  -->
<svg version="1.1" id="Capa_1" xmlns="http://www.w3.org/2000/svg" xmlns:xlink="http://www.w3.org/1999/xlink" x="0px" y="0px"
	 viewBox="0 0 496 496" style="enable-background:new 0 0 496 496;" xml:space="preserve">
<g>
	<g>
		<g>
			<path d="M0,0v496h496V0H0z M480,480H16V80h464V480z M480,64H16V16h464V64z"/>
			<rect x="32" y="32" width="16" height="16"/>
			<rect x="64" y="32" width="16" height="16"/>
			<rect x="96" y="32" width="16" height="16"/>
			<polygon points="185.6,299.2 198.4,308.8 216,285.328 233.6,308.8 246.4,299.2 228.152,274.872 251.576,263.16 244.424,248.84 
				224,259.056 224,240 208,240 208,259.056 187.576,248.84 180.424,263.16 203.848,274.872 			"/>
			<polygon points="273.6,299.2 286.4,308.8 304,285.328 321.6,308.8 334.4,299.2 316.152,274.872 339.576,263.16 332.424,248.84 
				312,259.056 312,240 296,240 296,259.056 275.576,248.84 268.424,263.16 291.848,274.872 			"/>
			<polygon points="361.6,299.2 374.4,308.8 392,285.328 409.6,308.8 422.4,299.2 404.152,274.872 427.576,263.16 420.424,248.84 
				400,259.056 400,240 384,240 384,259.056 363.576,248.84 356.424,263.16 379.848,274.872 			"/>
			<path d="M160,360h304V184H131.68c-8.8-9.792-21.512-16-35.68-16c-26.472,0-48,21.528-48,48v32H32v128h128V360z M64,216
				c0-17.648,14.352-32,32-32s32,14.352,32,32v32H64V216z M144,360H48v-96h96V360z M141.2,200H448v144H160v-96h-16v-32
				C144,210.384,142.976,205.016,141.2,200z"/>
			<path d="M88,326.528V344h16v-17.472c9.288-3.312,16-12.112,16-22.528c0-13.232-10.768-24-24-24s-24,10.768-24,24
				C72,314.416,78.712,323.216,88,326.528z M96,296c4.416,0,8,3.584,8,8c0,4.416-3.584,8-8,8s-8-3.584-8-8
				C88,299.584,91.584,296,96,296z"/>
		</g>
	</g>
</g>
<g>
</g>
<g>
</g>
<g>
</g>
<g>
</g>
<g>
</g>
<g>
</g>
<g>
</g>
<g>
</g>
<g>
</g>
<g>
</g>
<g>
</g>
<g>
</g>
<g>
</g>
<g>
</g>
<g>
</g>
</svg>
