<?xml version="1.0" encoding="iso-8859-1"?>
<!-- Generator: Adobe Illustrator 19.0.0, SVG Export Plug-In . SVG Version: 6.00 Build 0)  -->
<svg version="1.1" id="Capa_1" xmlns="http://www.w3.org/2000/svg" xmlns:xlink="http://www.w3.org/1999/xlink" x="0px" y="0px"
	 viewBox="0 0 496 496" style="enable-background:new 0 0 496 496;" xml:space="preserve">
<g>
	<g>
		<g>
			<path d="M301.088,213.024C304.952,219.792,312.2,224,320,224s15.048-4.208,18.912-10.976l50.544-88.456
				C396.36,112.496,400,98.768,400,84.88V80c0-44.112-35.888-80-80-80s-80,35.888-80,80v4.88c0,13.888,3.64,27.616,10.536,39.688
				L301.088,213.024z M256,80c0-35.288,28.712-64,64-64c35.288,0,64,28.712,64,64v4.88c0,11.112-2.912,22.096-8.432,31.752
				l-50.544,88.456c-2.064,3.592-7.984,3.592-10.048,0l-50.544-88.448c-5.52-9.664-8.432-20.648-8.432-31.76V80z"/>
			<path d="M320,128c26.472,0,48-21.528,48-48s-21.528-48-48-48s-48,21.528-48,48S293.528,128,320,128z M320,48
				c17.648,0,32,14.352,32,32s-14.352,32-32,32s-32-14.352-32-32S302.352,48,320,48z"/>
			<path d="M336,416v16h144v24c0,13.232-10.768,24-24,24H40c-13.232,0-24-10.768-24-24v-24h144v-16H0v40c0,22.056,17.944,40,40,40
				h416c22.056,0,40-17.944,40-40v-40H336z"/>
			<path d="M200,464h96c13.232,0,24-10.768,24-24v-24H176v24C176,453.232,186.768,464,200,464z M192,432h112v8c0,4.408-3.584,8-8,8
				h-96c-4.416,0-8-3.592-8-8V432z"/>
			<path d="M32,144c0-13.232,10.768-24,24-24h176v-16H56c-22.056,0-40,17.944-40,40v256h16V144z"/>
			<path d="M464,144v256h16V144c0-22.056-17.944-40-40-40h-32v16h32C453.232,120,464,130.768,464,144z"/>
			<path d="M432,200h-72v16h72v48H200v136h16V280h216v120h16V152c0-8.824-7.176-16-16-16h-24v16h24V200z"/>
			<path d="M152,216v-64h48v64h80v-16h-64v-48h16v-16H64c-8.824,0-16,7.176-16,16v248h16V280h72v120h16V264H64v-48H152z M64,152h72
				v48H64V152z"/>
			<polygon points="384,400 384,328 264,328 264,400 280,400 280,344 368,344 368,400 			"/>
		</g>
	</g>
</g>
<g>
</g>
<g>
</g>
<g>
</g>
<g>
</g>
<g>
</g>
<g>
</g>
<g>
</g>
<g>
</g>
<g>
</g>
<g>
</g>
<g>
</g>
<g>
</g>
<g>
</g>
<g>
</g>
<g>
</g>
</svg>
