<?xml version="1.0" encoding="iso-8859-1"?>
<!-- Generator: Adobe Illustrator 19.0.0, SVG Export Plug-In . SVG Version: 6.00 Build 0)  -->
<svg version="1.1" id="Capa_1" xmlns="http://www.w3.org/2000/svg" xmlns:xlink="http://www.w3.org/1999/xlink" x="0px" y="0px"
	 viewBox="0 0 496 496" style="enable-background:new 0 0 496 496;" xml:space="preserve">
<g>
	<g>
		<g>
			<path d="M456,0H264c-22.056,0-40,17.944-40,40v304c0,22.056,17.944,40,40,40h192c22.056,0,40-17.944,40-40V40
				C496,17.944,478.056,0,456,0z M480,344c0,13.232-10.768,24-24,24H264c-13.232,0-24-10.768-24-24V40c0-13.232,10.768-24,24-24h192
				c13.232,0,24,10.768,24,24V344z"/>
			<path d="M360,144c-57.344,0-104,46.656-104,104s46.656,104,104,104s104-46.656,104-104S417.344,144,360,144z M360,336
				c-48.52,0-88-39.48-88-88c0-48.52,39.48-88,88-88c48.52,0,88,39.48,88,88S408.52,336,360,336z"/>
			<path d="M360,192c-30.872,0-56,25.12-56,56c0,30.872,25.128,56,56,56s56-25.128,56-56C416,217.12,390.872,192,360,192z M360,288
				c-22.056,0-40-17.944-40-40c0-22.056,17.944-40,40-40c22.056,0,40,17.944,40,40C400,270.056,382.056,288,360,288z"/>
			<path d="M424,32c-22.056,0-40,17.944-40,40c0,22.056,17.944,40,40,40c22.056,0,40-17.944,40-40C464,49.944,446.056,32,424,32z
				 M424,96c-13.232,0-24-10.768-24-24s10.768-24,24-24s24,10.768,24,24S437.232,96,424,96z"/>
			<path d="M296,112c22.056,0,40-17.944,40-40c0-22.056-17.944-40-40-40c-22.056,0-40,17.944-40,40C256,94.056,273.944,112,296,112z
				 M296,48c13.232,0,24,10.768,24,24s-10.768,24-24,24s-24-10.768-24-24S282.768,48,296,48z"/>
			<polygon points="392,400 376,400 376,480 344,480 344,400 328,400 328,480 288,480 288,496 432,496 432,480 392,480 			"/>
			<rect y="240" width="208" height="16"/>
			<rect y="208" width="16" height="16"/>
			<rect y="176" width="16" height="16"/>
			<rect x="32" y="208" width="16" height="16"/>
			<rect x="32" y="176" width="16" height="16"/>
			<rect x="32" y="144" width="16" height="16"/>
			<rect x="64" y="208" width="16" height="16"/>
			<rect x="64" y="176" width="16" height="16"/>
			<rect x="96" y="208" width="16" height="16"/>
			<rect x="96" y="272" width="16" height="16"/>
			<rect x="128" y="336" width="16" height="16"/>
			<rect x="128" y="304" width="16" height="16"/>
			<rect x="128" y="272" width="16" height="16"/>
			<rect x="160" y="304" width="16" height="16"/>
			<rect x="160" y="272" width="16" height="16"/>
			<rect x="192" y="272" width="16" height="16"/>
		</g>
	</g>
</g>
<g>
</g>
<g>
</g>
<g>
</g>
<g>
</g>
<g>
</g>
<g>
</g>
<g>
</g>
<g>
</g>
<g>
</g>
<g>
</g>
<g>
</g>
<g>
</g>
<g>
</g>
<g>
</g>
<g>
</g>
</svg>
