<?xml version="1.0" encoding="iso-8859-1"?>
<!-- Generator: Adobe Illustrator 19.0.0, SVG Export Plug-In . SVG Version: 6.00 Build 0)  -->
<svg version="1.1" id="Capa_1" xmlns="http://www.w3.org/2000/svg" xmlns:xlink="http://www.w3.org/1999/xlink" x="0px" y="0px"
	 viewBox="0 0 496.008 496.008" style="enable-background:new 0 0 496.008 496.008;" xml:space="preserve">
<g>
	<g>
		<g>
			<path d="M496.004,256v-16h-32.2c-0.648-17.648-3.424-34.752-8.08-51.08l30.608-9.944l-4.936-15.216l-30.568,9.928
				c-6.016-16.368-13.96-31.808-23.56-46.048l26.072-18.944l-9.408-12.936l-26.128,18.984
				c-10.688-13.592-22.96-25.864-36.544-36.544l18.984-26.128l-12.936-9.408l-18.944,26.072c-14.24-9.592-29.68-17.544-46.048-23.56
				l9.928-30.568l-15.216-4.936l-9.944,30.608c-16.336-4.656-33.432-7.432-51.08-8.08V0h-16v32.2
				c-17.648,0.648-34.752,3.424-51.08,8.08L178.98,9.672l-15.216,4.936l9.928,30.568c-16.368,6.016-31.808,13.96-46.048,23.56
				L108.7,42.664l-12.936,9.4l18.984,26.128c-13.592,10.688-25.864,22.96-36.552,36.544l-26.12-18.984l-9.408,12.936l26.072,18.944
				c-9.592,14.24-17.544,29.68-23.56,46.048l-30.568-9.928l-4.936,15.224l30.608,9.944c-4.648,16.328-7.432,33.432-8.08,51.08h-32.2
				v16h32.2c0.648,17.648,3.424,34.752,8.08,51.08l-30.608,9.944l4.936,15.216l30.568-9.928c6.016,16.368,13.96,31.808,23.56,46.048
				l-26.072,18.944l9.408,12.936l26.12-18.984c10.688,13.592,22.96,25.864,36.552,36.552l-18.984,26.128l12.936,9.408l18.944-26.072
				c14.24,9.592,29.68,17.544,46.048,23.56l-9.928,30.568l15.216,4.936l9.944-30.608c16.328,4.648,33.432,7.432,51.08,8.08v32.2h16
				v-32.2c17.648-0.648,34.744-3.424,51.08-8.08l9.944,30.608l15.216-4.936l-9.928-30.568c16.368-6.016,31.808-13.96,46.048-23.56
				l18.944,26.072l12.936-9.408l-18.984-26.128c13.592-10.688,25.864-22.96,36.544-36.552l26.128,18.984l9.408-12.936
				l-26.072-18.944c9.592-14.24,17.544-29.68,23.56-46.048l30.568,9.928l4.936-15.216l-30.608-9.944
				c4.656-16.328,7.432-33.432,8.08-51.08H496.004z M248.004,448c-110.28,0-200-89.72-200-200s89.72-200,200-200s200,89.72,200,200
				S358.284,448,248.004,448z"/>
			<path d="M249.996,64.04l-21.36-0.224L237.82,72h-5.816v16h16v-6.768c45.784,42.536,72,103.008,72,166.768
				c0,37.88-9.296,75.312-26.88,108.224l14.112,7.544c18.824-35.232,28.768-75.264,28.768-115.768
				c0-62.336-23.408-121.816-64.864-166.368C352.74,93,416.004,163.592,416.004,248S352.74,403,271.14,414.368
				c9.776-10.512,18.608-21.896,26.4-34.056l-13.472-8.624c-10.176,15.872-22.344,30.28-36.064,43.032V408h-16v16h5.824
				l-9.184,8.176l21.352-0.224c100.36-1.08,182.008-83.6,182.008-183.952C432.004,147.64,350.356,65.12,249.996,64.04z"/>
			<rect x="176.004" y="72" width="16" height="16"/>
			<rect x="120.004" y="128" width="16" height="16"/>
			<rect x="176.004" y="128" width="16" height="16"/>
			<rect x="232.004" y="128" width="16" height="16"/>
			<rect x="64.004" y="184" width="16" height="16"/>
			<rect x="120.004" y="184" width="16" height="16"/>
			<rect x="176.004" y="184" width="16" height="16"/>
			<rect x="232.004" y="184" width="16" height="16"/>
			<rect x="288.004" y="184" width="16" height="16"/>
			<rect x="64.004" y="240" width="16" height="16"/>
			<rect x="120.004" y="240" width="16" height="16"/>
			<rect x="176.004" y="240" width="16" height="16"/>
			<rect x="232.004" y="240" width="16" height="16"/>
			<rect x="288.004" y="240" width="16" height="16"/>
			<rect x="64.004" y="296" width="16" height="16"/>
			<rect x="120.004" y="296" width="16" height="16"/>
			<rect x="176.004" y="296" width="16" height="16"/>
			<rect x="232.004" y="296" width="16" height="16"/>
			<rect x="288.004" y="296" width="16" height="16"/>
			<rect x="120.004" y="352" width="16" height="16"/>
			<rect x="176.004" y="352" width="16" height="16"/>
			<rect x="232.004" y="352" width="16" height="16"/>
			<rect x="176.004" y="408" width="16" height="16"/>
		</g>
	</g>
</g>
<g>
</g>
<g>
</g>
<g>
</g>
<g>
</g>
<g>
</g>
<g>
</g>
<g>
</g>
<g>
</g>
<g>
</g>
<g>
</g>
<g>
</g>
<g>
</g>
<g>
</g>
<g>
</g>
<g>
</g>
</svg>
